<svg xmlns="http://www.w3.org/2000/svg">
<view id="location" viewBox="100 0 16 16"/>
<view id="phone" viewBox="200 0 16 16"/>
<view id="email" viewBox="300 0 16 16"/>
<view id="projects" viewBox="400 0 16 16"/>
<view id="search" viewBox="500 0 28 28"/>
<view id="home" viewBox="600 0 16 16"/>

<g fill="#3a3f6d">
<svg id="_location" x="100"><path d="M8,0C4.7,0,2,2.2,2,5c0,4.8,6,11,6,11s6-6.2,6-11C14,2.2,11.3,0,8,0z M8,8C6.3,8,5,6.7,5,5s1.3-3,3-3s3,1.3,3,3S9.7,8,8,8z"/></svg>
<svg id="_phone" x="200"><path d="M6.4,7.2c1.2-1.7,2.7-3.4,3.6-2.9c1.4,0.6,2.3,1.3,4.2-0.8s-0.3-2.7-1.7-3.3S6.9,1.3,3.7,5.9S0.5,14.4,2,15.1c1.5,0.7,3.1,1.8,4.3-0.5s0.2-2.7-1.2-3.3C4.2,10.8,5.2,8.9,6.4,7.2z"/></svg>
<svg id="_email" x="300"><path d="M0.5,3.1l6.7,4.2c0.5,0.3,1.1,0.3,1.6,0l6.7-4.2c0.4-0.3,0.9-1.1,0-1.1h-15C-0.3,2,0.1,2.9,0.5,3.1zM15.6,5.2L8.8,9.4c-0.5,0.3-1.1,0.3-1.6,0L0.3,5.2C0,5,0,5.3,0,5.4v7.6c0.1,0.5,0.5,0.9,0.9,0.9h14.2c0.4-0.1,0.8-0.5,0.9-1V5.4C16,5.2,16,4.9,15.6,5.2L15.6,5.2z"/></svg>
</g>

<svg id="_projects" x="400" fill="#c7c7c7"><path d="M15,5.9v9.6c0,0.1,0,0.3-0.1,0.4C14.8,16,14.6,16,14.5,16h-4c-0.1,0-0.3,0-0.4-0.1C10,15.7,10,15.6,10,15.5V9H6v6.5c0,0.1,0,0.3-0.1,0.4C5.8,15.9,5.6,16,5.5,16h-4c-0.1,0-0.2,0-0.3-0.1C1,15.8,1,15.6,1,15.5V5.9c0-0.2,0.1-0.3,0.2-0.4l6.4-5.3C7.7,0,8,0,8.2,0.1l6.6,5.3C14.9,5.5,15,5.7,15,5.9z"/></svg>
<svg id="_search" x="500"><path d="M27.4,23.6L20.7,17c1-1.7,1.6-3.7,1.6-5.7C22.1,5.1,17.2,0.1,11,0C4.9,0,0,4.9,0,11c0.1,6.2,5.1,11.2,11.3,11.3c1.9,0,3.8-0.5,5.5-1.5l6.7,6.7c0.7,0.7,1.7,0.7,2.4,0l1.7-1.7C28.3,25.2,28,24.4,27.4,23.6z M3.4,11c0-4.2,3.4-7.6,7.6-7.6c0,0,0,0,0,0c4.3,0.1,7.8,3.6,7.9,7.9c0,4.2-3.4,7.6-7.6,7.6l0,0C7,18.8,3.5,15.3,3.4,11z"/></svg>
<svg id="_home" x="600" fill="#fff"><path d="M15.8,8.2L8.7,0.3c-0.3-0.4-0.9-0.4-1.3,0L0.3,8.2C-0.2,8.6,0,9,0.5,9H2v6.2C2,15.6,2,16,2.7,16h3.5V9.8h3.6V16h3.7c0.5,0,0.6-0.4,0.6-0.8V9h1.5C16,9,16.2,8.6,15.8,8.2z"/></svg>

</svg>